<svg width="33" height="32" viewBox="0 0 33 32" fill="none" xmlns="http://www.w3.org/2000/svg">
<path d="M17.2338 31.7614C16.7943 32.0795 16.2057 32.0795 15.7662 31.7614L16.5 30.7023L17.2338 31.7614ZM30.4615 10.0269C30.4615 7.31531 29.6518 5.49859 28.4949 4.35637C27.327 3.20361 25.66 2.59456 23.6923 2.59456C21.0854 2.59456 18.781 4.22288 17.6486 6.67728C17.439 7.13122 16.9911 7.42052 16.5 7.42052C16.0089 7.42052 15.561 7.13122 15.3514 6.67728C14.219 4.22288 11.9146 2.59456 9.30769 2.59456C5.64123 2.59456 2.53857 5.84753 2.53846 10.0269C2.53846 12.1035 3.36417 14.3625 4.73152 16.6518C6.09105 18.9279 7.92474 21.1325 9.79027 23.074C11.6512 25.0108 13.5173 26.6569 14.9201 27.8206C15.5597 28.3512 16.1019 28.7794 16.5 29.0875C16.8981 28.7794 17.4403 28.3512 18.0799 27.8206C19.4827 26.6569 21.3488 25.0108 23.2097 23.074C25.0753 21.1325 26.9089 18.9279 28.2685 16.6518C29.6358 14.3625 30.4615 12.1035 30.4615 10.0269ZM33 10.0269C33 12.7742 31.9216 15.5116 30.4334 18.0032C28.9373 20.5081 26.9631 22.8704 25.021 24.8916C23.0745 26.9174 21.1326 28.6305 19.6797 29.8358C18.9523 30.4392 18.3452 30.9176 17.918 31.2462C17.7043 31.4106 17.5353 31.5378 17.4189 31.6246C17.3606 31.668 17.3145 31.7014 17.2834 31.7243C17.2681 31.7355 17.257 31.7452 17.2486 31.7513C17.2446 31.7543 17.2411 31.7563 17.2387 31.7581L17.2354 31.7597C17.2351 31.76 17.2336 31.7609 16.5 30.7023C15.831 31.6677 15.7717 31.7525 15.7662 31.7597L15.7613 31.7581C15.7589 31.7563 15.7554 31.7543 15.7514 31.7513C15.743 31.7452 15.7319 31.7355 15.7166 31.7243C15.6855 31.7014 15.6394 31.668 15.5811 31.6246C15.4647 31.5378 15.2957 31.4106 15.082 31.2462C14.6548 30.9176 14.0477 30.4392 13.3203 29.8358C11.8674 28.6305 9.92549 26.9174 7.97897 24.8916C6.03686 22.8704 4.06275 20.5081 2.56656 18.0032C1.07839 15.5116 0 12.7742 0 10.0269C0.000108046 4.56508 4.09644 0 9.30769 0C12.2286 0 14.8042 1.44701 16.5 3.67056C18.1958 1.44701 20.7714 0 23.6923 0C26.1636 0 28.5167 0.77084 30.2583 2.48983C32.0102 4.21932 33 6.76681 33 10.0269Z" fill="#2A2A2A"/>
</svg>
