<svg width="32" height="32" viewBox="0 0 32 32" fill="none" xmlns="http://www.w3.org/2000/svg">
<path d="M11.4857 28.3077C11.4857 27.9812 11.356 27.6683 11.1252 27.4375C10.8944 27.2066 10.5815 27.0769 10.2551 27.0769C9.9287 27.0769 9.61577 27.2066 9.38497 27.4375C9.15418 27.6683 9.02443 27.9812 9.02443 28.3077C9.02443 28.6341 9.15418 28.947 9.38497 29.1779C9.61577 29.4087 9.9287 29.5384 10.2551 29.5384C10.5815 29.5384 10.8944 29.4087 11.1252 29.1779C11.356 28.947 11.4857 28.6341 11.4857 28.3077ZM24.6127 28.3077C24.6127 27.9812 24.4829 27.6683 24.2522 27.4375C24.0214 27.2066 23.7084 27.0769 23.382 27.0769C23.0557 27.0769 22.7427 27.2066 22.5119 27.4375C22.2811 27.6683 22.1514 27.9812 22.1514 28.3077C22.1514 28.6341 22.2811 28.947 22.5119 29.1779C22.7427 29.4087 23.0557 29.5384 23.382 29.5384C23.7084 29.5384 24.0214 29.4087 24.2522 29.1779C24.4829 28.947 24.6127 28.6341 24.6127 28.3077ZM0.880974 0.0509298C1.53259 -0.141861 2.21671 0.229493 2.40967 0.881067L3.31344 3.93879H27.3592C30.3798 3.93879 32.685 6.7548 31.8139 9.70008L29.0994 18.8893C28.5191 20.8469 26.6839 22.1537 24.6447 22.1537H9.61893C7.57881 22.1537 5.74133 20.8466 5.16262 18.8893L1.21428 5.51734L1.21588 5.51573L0.0509244 1.57979C-0.141846 0.928106 0.229468 0.243918 0.880974 0.0509298ZM7.52297 18.1906C7.77782 19.0525 8.61687 19.6922 9.61893 19.6922H24.6447C25.6444 19.6922 26.4825 19.0554 26.7391 18.1906L29.4536 9.00135L29.5065 8.76577C29.6996 7.58797 28.7669 6.40036 27.3592 6.40036H4.04253L7.52297 18.1906ZM13.947 28.3077C13.947 29.2869 13.5578 30.2258 12.8654 30.9183C12.173 31.6107 11.2343 32 10.2551 32C9.27592 32 8.33713 31.6107 7.64475 30.9183C6.95238 30.2258 6.56313 29.2869 6.56313 28.3077C6.56313 27.3284 6.95238 26.3895 7.64475 25.697C8.33713 25.0046 9.27592 24.6153 10.2551 24.6153C11.2343 24.6153 12.173 25.0046 12.8654 25.697C13.5578 26.3895 13.947 27.3284 13.947 28.3077ZM27.074 28.3077C27.074 29.2869 26.6847 30.2258 25.9924 30.9183C25.3 31.6107 24.3612 32 23.382 32C22.4029 32 21.4641 31.6107 20.7717 30.9183C20.0793 30.2258 19.6901 29.2869 19.6901 28.3077C19.6901 27.3284 20.0793 26.3895 20.7717 25.697C21.4641 25.0046 22.4029 24.6153 23.382 24.6153C24.3612 24.6153 25.3 25.0046 25.9924 25.697C26.6847 26.3895 27.074 27.3284 27.074 28.3077Z" fill="#2A2A2A"/>
</svg>
