<svg width="25" height="24" viewBox="0 0 25 24" fill="none" xmlns="http://www.w3.org/2000/svg">
<path d="M21.4622 11.3144C21.4622 8.85921 20.4453 6.50396 18.6341 4.7679C16.8229 3.03183 14.3657 2.05716 11.8042 2.05716C9.24274 2.05716 6.78553 3.03183 4.97431 4.7679C3.16308 6.50396 2.14622 8.85921 2.14622 11.3144C2.14622 13.7695 3.16308 16.1248 4.97431 17.8609C6.78553 19.5969 9.24274 20.5716 11.8042 20.5716C14.3657 20.5716 16.8229 19.5969 18.6341 17.8609C20.4453 16.1248 21.4622 13.7695 21.4622 11.3144ZM23.6084 11.3144C23.6084 13.9793 22.6258 16.5458 20.8558 18.5734L24.6857 22.2444C25.1048 22.6461 25.1048 23.2972 24.6857 23.6989C24.2666 24.1003 23.5872 24.1005 23.1683 23.6989L19.3355 20.0252C17.2268 21.7003 14.5658 22.6288 11.8042 22.6288C8.67353 22.6288 5.67058 21.4372 3.45686 19.3153C1.24315 17.1935 0 14.3151 0 11.3144C0 8.31362 1.24315 5.43528 3.45686 3.31342C5.67058 1.19156 8.67353 0 11.8042 0C14.9349 0 17.9378 1.19156 20.1515 3.31342C22.3652 5.43528 23.6084 8.31362 23.6084 11.3144Z" fill="#2A2A2A"/>
</svg>
