<svg width="56" height="40" viewBox="0 0 56 40" fill="none" xmlns="http://www.w3.org/2000/svg">
<path d="M3.55923 0.253159C4.74151 0.0303212 6.12833 0.0906802 7.57704 0.311753C10.4964 0.757352 14.1513 1.93532 17.9901 3.58945C18.9177 3.9895 19.3428 5.06021 18.94 5.98114C18.537 6.90206 17.4583 7.32381 16.5303 6.92397C12.8407 5.33411 9.50829 4.2852 7.0207 3.9055C5.76639 3.71407 4.84476 3.71209 4.24258 3.8256C3.88357 3.89328 3.74141 3.97853 3.69697 4.01381C3.64593 4.1592 3.55916 4.80568 4.36064 6.3114C5.14313 7.78112 6.53946 9.61847 8.51262 11.7056C12.4434 15.8632 18.4099 20.7497 25.4783 25.3402C32.5521 29.9323 39.2882 33.2919 44.4314 35.033C47.0198 35.9092 49.0908 36.3372 50.5494 36.3629C51.2765 36.3757 51.7475 36.2851 52.0234 36.1782C52.2413 36.0938 52.2842 36.0213 52.2917 36.006C52.3155 35.955 52.4014 35.7137 52.238 35.1076C52.0709 34.4876 51.6907 33.6667 51.0359 32.6555C49.7302 30.6391 47.5318 28.1589 44.587 25.4325C43.8474 24.7476 43.806 23.5975 44.4958 22.8632C45.1859 22.129 46.3463 22.0895 47.0861 22.7745C50.1389 25.601 52.5807 28.3157 54.1182 30.6899C54.8848 31.8739 55.475 33.0489 55.7764 34.1665C56.0757 35.2763 56.1377 36.5205 55.5636 37.6502L55.5582 37.6573C54.5625 39.5934 52.3683 40.0307 50.4832 39.9975C48.4743 39.9619 45.9894 39.4035 43.249 38.4758C38.0779 36.7253 31.5881 33.5211 24.8271 29.2517L23.4712 28.3835C16.2261 23.6783 10.0193 18.6118 5.84183 14.1931C3.76122 11.9924 2.11952 9.88472 1.12099 8.00884C0.192984 6.26534 -0.485155 4.14606 0.44301 2.33945C1.10853 1.04464 2.38452 0.4746 3.55923 0.253159Z" fill="#2A2A2A"/>
<path d="M44.4857 20C44.4857 17.8511 44.0584 15.7229 43.2299 13.7376C42.4015 11.7525 41.1883 9.94798 39.6576 8.42862C38.1269 6.90934 36.3087 5.70514 34.3088 4.88281C32.3087 4.06049 30.1644 3.63639 27.9995 3.63636C25.8345 3.63636 23.6903 4.06047 21.6901 4.88281C19.6901 5.70515 17.8721 6.90926 16.3414 8.42862C14.8106 9.94798 13.5975 11.7525 12.769 13.7376C11.9405 15.7229 11.5132 17.8511 11.5132 20C11.5132 22.1488 11.9405 24.2772 12.769 26.2624C13.5975 28.2474 14.8107 30.0521 16.3414 31.5714C17.8721 33.0907 19.6902 34.2949 21.6901 35.1172C23.6903 35.9395 25.8345 36.3636 27.9995 36.3636C30.1644 36.3636 32.3087 35.9395 34.3088 35.1172C36.3087 34.2949 38.1269 33.0907 39.6576 31.5714C41.1883 30.0521 42.4014 28.2475 43.2299 26.2624C44.0584 24.2772 44.4857 22.1488 44.4857 20ZM48.1493 20C48.1493 22.6262 47.627 25.2264 46.6145 27.6527C45.6019 30.0792 44.1189 32.2853 42.2479 34.1424C40.3768 35.9995 38.1542 37.4715 35.7095 38.4766C33.265 39.4815 30.6454 40 27.9995 40C25.3534 40 22.7323 39.4817 20.2876 38.4766C17.8434 37.4715 15.6219 35.9993 13.7511 34.1424C11.88 32.2853 10.3953 30.0792 9.38267 27.6527C8.37032 25.2265 7.84964 22.626 7.84961 20C7.84961 17.3736 8.37006 14.772 9.38267 12.3455C10.3953 9.91917 11.8801 7.71467 13.7511 5.8576C15.6221 4.00053 17.8431 2.52674 20.2876 1.52166C22.7323 0.516578 25.3534 0 27.9995 0C30.6452 2.18547e-05 33.2652 0.516841 35.7095 1.52166C38.1542 2.52675 40.3768 4.00045 42.2479 5.8576C44.1186 7.7145 45.6019 9.91944 46.6145 12.3455C47.6271 14.772 48.1493 17.3736 48.1493 20Z" fill="#2A2A2A"/>
</svg>
