<svg width="14" height="24" viewBox="0 0 14 24" fill="none" xmlns="http://www.w3.org/2000/svg">
<path d="M11.0836 0C11.3691 9.7905e-05 11.6368 0.147189 11.8005 0.393924C11.9641 0.640708 12.0034 0.956521 11.9056 1.23946L9.2712 8.86104H13.125C13.4456 8.86104 13.7409 9.04617 13.894 9.3433C14.0472 9.64048 14.0334 10.0023 13.859 10.2862L5.69257 23.5786C5.471 23.9392 5.04242 24.0912 4.65948 23.9446C4.27668 23.798 4.0404 23.3913 4.08953 22.9648L4.99103 15.1386H0.874913C0.600651 15.1386 0.342166 15.0025 0.176789 14.7717C0.0114572 14.5409 -0.041579 14.2414 0.0332335 13.9631L3.60589 0.671564C3.71262 0.274509 4.05637 0.000132837 4.44757 0H11.0836ZM2.0319 13.2925H5.97883C6.22928 13.2925 6.46815 13.4057 6.63423 13.6034C6.80011 13.8012 6.87801 14.0643 6.84785 14.3264L6.28303 19.2211L11.5151 10.7072H8.02107C7.73567 10.7072 7.46791 10.5607 7.30415 10.3141C7.14045 10.0674 7.10131 9.75158 7.19905 9.4686L9.83346 1.84612H5.10895L2.0319 13.2925Z" fill="#2A2A2A"/>
</svg>
