<svg width="36" height="24" viewBox="0 0 36 24" fill="none" xmlns="http://www.w3.org/2000/svg">
<path d="M24.727 12.0506L33.9539 3.97658V20.0325L24.727 12.0506ZM12.8375 13.4179L16.0777 16.2508C16.5862 16.6859 17.2492 16.9488 17.9737 16.9488H17.9992H18.0188C18.7448 16.9488 19.4078 16.6844 19.9223 16.2463L19.9178 16.2493L23.158 13.4164L33.0074 21.9362H2.99262L12.8375 13.4179ZM2.97912 2.06232H33.0254L18.5933 14.6871C18.4317 14.8176 18.2304 14.8881 18.0233 14.8865H18.0023H17.9827C17.7749 14.888 17.573 14.817 17.4112 14.6856L17.4127 14.6871L2.97912 2.06232ZM2.04759 3.97507L11.273 12.0491L2.04759 20.0264V3.97507ZM34.4489 0.287063C34.0889 0.10576 33.6659 0 33.2174 0H2.78862C2.35403 0.00173268 1.92559 0.103541 1.53606 0.297639L1.55256 0.290085C1.08734 0.521975 0.695573 0.879979 0.421299 1.32384C0.147025 1.76771 0.00112409 2.27984 0 2.80264L0 21.1928C0.000794139 21.9371 0.294691 22.6506 0.817204 23.1769C1.33972 23.7032 2.04817 23.9992 2.78712 24H33.2129C33.9518 23.9992 34.6603 23.7032 35.1828 23.1769C35.7053 22.6506 35.9992 21.9371 36 21.1928V2.80264C36 1.70425 35.3715 0.752408 34.4564 0.294618L34.4399 0.287063H34.4489Z" fill="#2A2A2A"/>
</svg>
