<svg width="32" height="32" viewBox="0 0 32 32" fill="none" xmlns="http://www.w3.org/2000/svg">
<path d="M28.8 9.6C28.8 6.06766 25.9323 3.2 22.4 3.2H9.6C6.06766 3.2 3.2 6.06766 3.2 9.6V22.4C3.2 25.9323 6.06766 28.8 9.6 28.8H22.4C25.9323 28.8 28.8 25.9323 28.8 22.4V9.6ZM32 22.4C32 27.6997 27.6997 32 22.4 32H9.6C4.30034 32 0 27.6997 0 22.4V9.6C0 4.30034 4.30034 0 9.6 0H22.4C27.6997 0 32 4.30034 32 9.6V22.4Z" fill="#2A2A2A"/>
<path d="M20.8 16C20.8 13.3477 18.6523 11.2 16 11.2C13.3477 11.2 11.2 13.3477 11.2 16C11.2 18.6523 13.3477 20.8 16 20.8C18.6523 20.8 20.8 18.6523 20.8 16ZM24 16C24 20.4197 20.4197 24 16 24C11.5803 24 8 20.4197 8 16C8 11.5803 11.5803 8 16 8C20.4197 8 24 11.5803 24 16Z" fill="#2A2A2A"/>
<path d="M24.0001 10.4001C25.3256 10.4001 26.4001 9.32558 26.4001 8.0001C26.4001 6.67461 25.3256 5.6001 24.0001 5.6001C22.6746 5.6001 21.6001 6.67461 21.6001 8.0001C21.6001 9.32558 22.6746 10.4001 24.0001 10.4001Z" fill="#2A2A2A"/>
</svg>
