<svg width="42" height="40" viewBox="0 0 42 40" fill="none" xmlns="http://www.w3.org/2000/svg">
<path d="M35.8682 15.5464C36.7928 15.5464 37.6233 15.5786 38.3399 15.6831C39.0493 15.7866 39.7599 15.9761 40.3724 16.3652C41.7928 17.2677 42.0433 18.7776 41.9942 20.2159C41.9164 22.5318 41.3508 25.1677 39.6443 27.4336C37.9146 29.7301 35.1442 31.4722 30.9984 32.2038C30.1606 32.3514 29.3621 31.7919 29.2141 30.9553C29.0664 30.1187 29.6251 29.3212 30.4628 29.1734C33.9818 28.5524 36.0026 27.1514 37.183 25.5841C38.3858 23.9869 38.8501 22.0379 38.9146 20.1123V20.1108C38.9335 19.5566 38.8815 19.2626 38.8289 19.1131C38.7939 19.0142 38.7679 18.9925 38.719 18.9614C38.6245 18.9014 38.3967 18.8002 37.8946 18.727C37.3999 18.6549 36.7451 18.6234 35.8682 18.6234H33.1632C32.3124 18.6234 31.6227 17.9346 31.6227 17.0849C31.6227 16.2352 32.3124 15.5464 33.1632 15.5464H35.8682Z" fill="#b2f71dff"/>
<path d="M27.5024 11.6597C28.6001 11.6597 29.5632 11.7012 30.3789 11.8339C31.191 11.9661 31.9827 12.2078 32.643 12.6993C34.0775 13.7674 34.2465 15.4898 34.2151 17.115C34.07 24.634 33.1095 32.4531 25.9363 37.9612C24.8612 38.7865 23.8167 39.318 22.6326 39.6273C21.4799 39.9285 20.2646 39.9999 18.8971 39.9999H15.3211C13.9552 39.9999 12.7397 39.9296 11.5871 39.6288C10.4029 39.3198 9.35665 38.7876 8.28043 37.9612C1.10972 32.4532 0.148243 24.6342 0.00311161 17.115C-0.0272864 15.4904 0.141387 13.7673 1.57523 12.6993C2.23524 12.2079 3.02612 11.9662 3.83788 11.8339C4.65365 11.7011 5.61777 11.6597 6.71584 11.6597H27.5024ZM6.71584 14.7366C5.66572 14.7366 4.90058 14.7782 4.33434 14.8704C3.7644 14.9631 3.51994 15.0894 3.41664 15.1663C3.32324 15.2359 3.05442 15.4578 3.08416 17.0549L3.12178 18.4326C3.36821 25.2635 4.57194 31.231 10.1595 35.5227C10.9527 36.1318 11.6306 36.4592 12.3649 36.651C13.1314 36.8511 14.033 36.923 15.3211 36.923H18.8971C20.1858 36.923 21.0869 36.8513 21.8533 36.651C22.4965 36.483 23.0959 36.2109 23.7669 35.7376L24.0588 35.5212C30.02 30.9435 30.9912 24.4604 31.1341 17.0549C31.1649 15.4563 30.8946 15.2356 30.8016 15.1663C30.6982 15.0893 30.454 14.9632 29.8839 14.8704C29.3175 14.7782 28.5524 14.7366 27.5024 14.7366H6.71584Z" fill="#99f71dff"/>
<path d="M9.73047 7.3675C9.73058 6.10813 10.0734 5.13055 10.4406 4.45129C10.6227 4.11438 10.8103 3.85299 10.9611 3.66702C11.0366 3.57398 11.1029 3.49849 11.1567 3.44166C11.1836 3.41319 11.2075 3.38914 11.2274 3.36954C11.2372 3.35982 11.2465 3.35156 11.2544 3.344C11.2583 3.34037 11.2616 3.33662 11.265 3.33348C11.2667 3.33186 11.2694 3.33047 11.271 3.32898L11.2725 3.32597H11.274C11.2786 3.32994 11.3398 3.39506 12.2383 4.36415L11.2755 3.32447C11.8997 2.74733 12.8743 2.78393 13.4524 3.4071C14.0301 4.03021 13.9929 5.00371 13.3697 5.58111L13.3727 5.57811C13.374 5.57685 13.376 5.57626 13.3772 5.5751C13.3796 5.5728 13.3812 5.56949 13.3832 5.56759C13.3871 5.5639 13.39 5.56074 13.3922 5.55858C13.3965 5.55432 13.3984 5.55381 13.3967 5.55557C13.3931 5.55942 13.3776 5.57534 13.3546 5.60365C13.3084 5.66061 13.232 5.76427 13.1515 5.91315C12.9936 6.20538 12.8116 6.68475 12.8115 7.3675C12.8115 8.21718 12.1218 8.90598 11.271 8.90598C10.4202 8.90598 9.73047 8.21718 9.73047 7.3675ZM15.5676 7.3675C15.5677 5.65114 16.0043 4.12545 16.6042 2.92182C17.1843 1.75774 17.9869 0.761801 18.8442 0.230973C19.5674 -0.216623 20.5173 0.00604501 20.9655 0.728276C21.4132 1.45036 21.1903 2.39763 20.4675 2.8452C20.2607 2.97322 19.789 3.43486 19.3618 4.29203C18.9543 5.10965 18.6488 6.16945 18.6487 7.3675C18.6487 8.21718 17.959 8.90598 17.1081 8.90598C16.2576 8.90564 15.5676 8.21697 15.5676 7.3675ZM22.3796 7.3675C22.3797 6.69299 22.5249 5.88935 22.7377 5.21002C22.846 4.86447 22.9864 4.50175 23.1649 4.17484C23.3204 3.89039 23.6048 3.44259 24.0796 3.14718L24.218 3.07056C24.9191 2.7274 25.7808 2.96381 26.2024 3.63998C26.6147 4.30146 26.461 5.15196 25.8759 5.6352C25.8737 5.63906 25.8723 5.64437 25.8699 5.64872C25.8162 5.7472 25.7461 5.90992 25.6773 6.1295C25.5357 6.58161 25.4608 7.07045 25.4607 7.3675C25.4607 8.21697 24.7707 8.90564 23.9202 8.90598C23.0694 8.90598 22.3796 8.21718 22.3796 7.3675Z" fill="#c3c327ff"/>
</svg>
